<svg id="visual" viewBox="0 0 900 600" width="900" height="600" xmlns="http://www.w3.org/2000/svg" xmlns:xlink="http://www.w3.org/1999/xlink" version="1.1"><path d="M0 475L21.5 436.8C43 398.7 86 322.3 128.8 295.3C171.7 268.3 214.3 290.7 257.2 322C300 353.3 343 393.7 385.8 409.3C428.7 425 471.3 416 514.2 404.7C557 393.3 600 379.7 642.8 361.5C685.7 343.3 728.3 320.7 771.2 334.3C814 348 857 398 878.5 423L900 448L900 601L878.5 601C857 601 814 601 771.2 601C728.3 601 685.7 601 642.8 601C600 601 557 601 514.2 601C471.3 601 428.7 601 385.8 601C343 601 300 601 257.2 601C214.3 601 171.7 601 128.8 601C86 601 43 601 21.5 601L0 601Z" fill="#0066FF" stroke-linecap="round" stroke-linejoin="miter"></path></svg>